<svg width="272.901" height="70.996" viewBox="0 0 272.901 70.996" xmlns="http://www.w3.org/2000/svg"><g id="svgGroup" stroke-linecap="round" fill-rule="evenodd" font-size="9pt" stroke="#000" stroke-width="0.60mm" fill="#000" style="stroke:#000;stroke-width:0.60mm;fill:#000"><path d="M 71.289 0 L 52.783 70.02 L 49.512 70.02 L 35.889 17.334 L 35.693 14.6 L 35.4 17.334 L 21.875 70.02 L 18.604 70.02 L 0 0 L 6.299 0 L 20.02 53.223 L 20.215 55.811 L 20.41 53.223 L 33.887 0 L 37.402 0 L 50.879 53.223 L 51.074 55.811 L 51.318 53.223 L 64.99 0 L 71.289 0 Z M 182.08 70.02 L 176.074 70.02 L 176.074 33.398 Q 176.074 31.592 175.391 30.005 A 8.758 8.758 0 0 0 173.535 27.246 Q 172.363 26.074 170.776 25.391 Q 169.189 24.707 167.383 24.707 L 164.404 24.707 Q 162.598 24.707 161.011 25.391 A 9.058 9.058 0 0 0 158.228 27.246 A 8.558 8.558 0 0 0 156.348 30.005 Q 155.664 31.592 155.664 33.398 L 155.664 70.02 L 149.707 70.02 L 149.707 33.398 Q 149.707 31.592 149.023 30.005 Q 148.34 28.418 147.144 27.246 A 9.058 9.058 0 0 0 144.36 25.391 Q 142.773 24.707 140.967 24.707 L 137.988 24.707 Q 136.182 24.707 134.595 25.391 A 8.758 8.758 0 0 0 131.836 27.246 Q 130.664 28.418 129.98 30.005 Q 129.297 31.592 129.297 33.398 L 129.297 70.02 L 123.291 70.02 L 123.291 20.02 L 125.293 20.02 L 128.564 25.098 A 15.011 15.011 0 0 1 133.716 20.679 Q 136.816 19.043 140.479 19.043 L 140.967 19.043 A 14.748 14.748 0 0 1 146.53 20.081 A 14.023 14.023 0 0 1 148.633 21.143 A 14.429 14.429 0 0 1 153.906 26.709 A 14.311 14.311 0 0 1 156.201 23.584 A 14.859 14.859 0 0 1 159.229 21.167 Q 160.889 20.166 162.842 19.604 Q 164.795 19.043 166.895 19.043 L 167.383 19.043 A 14.387 14.387 0 0 1 173.096 20.19 A 14.758 14.758 0 0 1 177.783 23.34 Q 179.785 25.342 180.933 28.027 A 14.387 14.387 0 0 1 182.08 33.74 L 182.08 70.02 Z M 272.9 70.02 L 266.895 70.02 L 266.895 33.398 Q 266.895 31.592 266.211 30.005 A 8.758 8.758 0 0 0 264.355 27.246 Q 263.184 26.074 261.597 25.391 Q 260.01 24.707 258.203 24.707 L 254.199 24.707 Q 252.393 24.707 250.806 25.391 A 8.758 8.758 0 0 0 248.047 27.246 Q 246.875 28.418 246.191 30.005 Q 245.508 31.592 245.508 33.398 L 245.508 70.02 L 239.502 70.02 L 239.502 20.02 L 241.504 20.02 L 244.775 25.098 A 15.011 15.011 0 0 1 249.927 20.679 Q 253.027 19.043 256.689 19.043 L 258.203 19.043 A 14.387 14.387 0 0 1 263.916 20.19 A 14.758 14.758 0 0 1 268.604 23.34 Q 270.605 25.342 271.753 28.027 A 14.387 14.387 0 0 1 272.9 33.74 L 272.9 70.02 Z M 212.793 70.996 L 208.789 70.996 A 14.387 14.387 0 0 1 203.076 69.849 A 14.758 14.758 0 0 1 198.389 66.699 Q 196.387 64.697 195.239 62.012 A 14.387 14.387 0 0 1 194.092 56.299 L 194.092 33.74 A 14.387 14.387 0 0 1 195.239 28.027 A 14.758 14.758 0 0 1 198.389 23.34 Q 200.391 21.338 203.076 20.19 A 14.387 14.387 0 0 1 208.789 19.043 L 212.793 19.043 A 14.387 14.387 0 0 1 218.506 20.19 A 14.758 14.758 0 0 1 223.193 23.34 Q 225.195 25.342 226.343 28.027 A 14.387 14.387 0 0 1 227.49 33.74 L 227.49 45.508 L 200.098 45.508 L 200.098 56.641 Q 200.098 58.447 200.781 60.034 A 8.758 8.758 0 0 0 202.637 62.793 Q 203.809 63.965 205.396 64.648 Q 206.982 65.332 208.789 65.332 L 212.793 65.332 Q 214.6 65.332 216.187 64.648 A 8.758 8.758 0 0 0 218.945 62.793 Q 220.117 61.621 220.801 60.034 Q 221.484 58.447 221.484 56.641 L 221.484 53.32 L 227.49 54.297 L 227.49 56.299 A 14.387 14.387 0 0 1 226.343 62.012 A 14.758 14.758 0 0 1 223.193 66.699 Q 221.191 68.701 218.506 69.849 A 14.387 14.387 0 0 1 212.793 70.996 Z M 96.582 70.996 L 92.578 70.996 A 14.387 14.387 0 0 1 86.865 69.849 A 14.758 14.758 0 0 1 82.178 66.699 Q 80.176 64.697 79.028 62.012 A 14.387 14.387 0 0 1 77.881 56.299 L 77.881 33.74 A 14.387 14.387 0 0 1 79.028 28.027 A 14.758 14.758 0 0 1 82.178 23.34 Q 84.18 21.338 86.865 20.19 A 14.387 14.387 0 0 1 92.578 19.043 L 96.582 19.043 A 14.387 14.387 0 0 1 102.295 20.19 A 14.758 14.758 0 0 1 106.982 23.34 Q 108.984 25.342 110.132 28.027 A 14.387 14.387 0 0 1 111.279 33.74 L 111.279 56.299 A 14.387 14.387 0 0 1 110.132 62.012 A 14.758 14.758 0 0 1 106.982 66.699 Q 104.98 68.701 102.295 69.849 A 14.387 14.387 0 0 1 96.582 70.996 Z M 105.273 56.641 L 105.273 33.398 Q 105.273 31.592 104.59 30.005 A 8.758 8.758 0 0 0 102.734 27.246 Q 101.563 26.074 99.976 25.391 Q 98.389 24.707 96.582 24.707 L 92.578 24.707 Q 90.771 24.707 89.185 25.391 A 8.758 8.758 0 0 0 86.426 27.246 Q 85.254 28.418 84.57 30.005 Q 83.887 31.592 83.887 33.398 L 83.887 56.641 Q 83.887 58.447 84.57 60.034 A 8.758 8.758 0 0 0 86.426 62.793 Q 87.598 63.965 89.185 64.648 Q 90.771 65.332 92.578 65.332 L 96.582 65.332 Q 98.389 65.332 99.976 64.648 A 8.758 8.758 0 0 0 102.734 62.793 Q 103.906 61.621 104.59 60.034 Q 105.273 58.447 105.273 56.641 Z M 221.484 40.82 L 221.484 33.398 Q 221.484 31.592 220.801 30.005 A 8.758 8.758 0 0 0 218.945 27.246 Q 217.773 26.074 216.187 25.391 Q 214.6 24.707 212.793 24.707 L 208.789 24.707 Q 206.982 24.707 205.396 25.391 A 8.758 8.758 0 0 0 202.637 27.246 Q 201.465 28.418 200.781 30.005 Q 200.098 31.592 200.098 33.398 L 200.098 40.82 L 221.484 40.82 Z" vector-effect="non-scaling-stroke"/></g></svg>